<svg id="visual" viewBox="0 0 960 540" width="960" height="540" xmlns="http://www.w3.org/2000/svg" version="1.1">
    <path d="M0 336L22.8 334.3C45.7 332.7 91.3 329.3 137 338.3C182.7 347.3 228.3 368.7 274 378.5C319.7 388.3 365.3 386.7 411.2 379.7C457 372.7 503 360.3 548.8 359.8C594.7 359.3 640.3 370.7 686 377.3C731.7 384 777.3 386 823 387.3C868.7 388.7 914.3 389.3 937.2 389.7L960 390L960 541L937.2 541C914.3 541 868.7 541 823 541C777.3 541 731.7 541 686 541C640.3 541 594.7 541 548.8 541C503 541 457 541 411.2 541C365.3 541 319.7 541 274 541C228.3 541 182.7 541 137 541C91.3 541 45.7 541 22.8 541L0 541Z"
          fill="#29304b"></path>
    <path d="M0 413L22.8 415.8C45.7 418.7 91.3 424.3 137 424.5C182.7 424.7 228.3 419.3 274 409.8C319.7 400.3 365.3 386.7 411.2 384C457 381.3 503 389.7 548.8 395.2C594.7 400.7 640.3 403.3 686 398C731.7 392.7 777.3 379.3 823 381.2C868.7 383 914.3 400 937.2 408.5L960 417L960 541L937.2 541C914.3 541 868.7 541 823 541C777.3 541 731.7 541 686 541C640.3 541 594.7 541 548.8 541C503 541 457 541 411.2 541C365.3 541 319.7 541 274 541C228.3 541 182.7 541 137 541C91.3 541 45.7 541 22.8 541L0 541Z"
          fill="#272b3f"></path>
    <path d="M0 452L22.8 451C45.7 450 91.3 448 137 441.5C182.7 435 228.3 424 274 422.7C319.7 421.3 365.3 429.7 411.2 436.7C457 443.7 503 449.3 548.8 450.2C594.7 451 640.3 447 686 443.8C731.7 440.7 777.3 438.3 823 436.8C868.7 435.3 914.3 434.7 937.2 434.3L960 434L960 541L937.2 541C914.3 541 868.7 541 823 541C777.3 541 731.7 541 686 541C640.3 541 594.7 541 548.8 541C503 541 457 541 411.2 541C365.3 541 319.7 541 274 541C228.3 541 182.7 541 137 541C91.3 541 45.7 541 22.8 541L0 541Z"
          fill="#242734"></path>
    <path d="M0 458L22.8 454.8C45.7 451.7 91.3 445.3 137 444.7C182.7 444 228.3 449 274 452.2C319.7 455.3 365.3 456.7 411.2 456C457 455.3 503 452.7 548.8 455.3C594.7 458 640.3 466 686 466.8C731.7 467.7 777.3 461.3 823 458.8C868.7 456.3 914.3 457.7 937.2 458.3L960 459L960 541L937.2 541C914.3 541 868.7 541 823 541C777.3 541 731.7 541 686 541C640.3 541 594.7 541 548.8 541C503 541 457 541 411.2 541C365.3 541 319.7 541 274 541C228.3 541 182.7 541 137 541C91.3 541 45.7 541 22.8 541L0 541Z"
          fill="#212229"></path>
    <path d="M0 473L22.8 474.5C45.7 476 91.3 479 137 481.7C182.7 484.3 228.3 486.7 274 492C319.7 497.3 365.3 505.7 411.2 509.5C457 513.3 503 512.7 548.8 508C594.7 503.3 640.3 494.7 686 493C731.7 491.3 777.3 496.7 823 498.7C868.7 500.7 914.3 499.3 937.2 498.7L960 498L960 541L937.2 541C914.3 541 868.7 541 823 541C777.3 541 731.7 541 686 541C640.3 541 594.7 541 548.8 541C503 541 457 541 411.2 541C365.3 541 319.7 541 274 541C228.3 541 182.7 541 137 541C91.3 541 45.7 541 22.8 541L0 541Z"
          fill="#1e1e1e"></path>
</svg>
